<svg xmlns="http://www.w3.org/2000/svg" viewBox="0 0 265.42 65.98"><defs><style>.cls-1,.cls-3{fill:none;}.cls-1,.cls-2,.cls-3,.cls-4{stroke:#21362c;stroke-linecap:round;stroke-linejoin:round;stroke-width:2.5px;}.cls-1,.cls-2{fill-rule:evenodd;}.cls-2,.cls-4{fill:#bfbfbf;}</style></defs><title>overskuddsmasse</title><g id="Layer_2" data-name="Layer 2"><g id="Layer_1-2" data-name="Layer 1"><path class="cls-1" d="M161.38,29.92A28.67,28.67,0,0,0,132.71,1.25h0A28.67,28.67,0,0,0,104,29.92V64.67h57.34Z"/><path class="cls-2" d="M151.46,32.9c0-11.46-8.39-20.75-18.75-20.75h0C122.36,12.15,114,21.44,114,32.9V64.67h37.5Z"/><line class="cls-3" x1="161.38" y1="53.59" x2="151.46" y2="53.59"/><line class="cls-3" x1="161.38" y1="43.16" x2="151.46" y2="43.16"/><line class="cls-3" x1="161.38" y1="32.73" x2="151.46" y2="32.73"/><line class="cls-3" x1="113.96" y1="53.59" x2="104.04" y2="53.59"/><line class="cls-3" x1="113.96" y1="43.16" x2="104.04" y2="43.16"/><line class="cls-3" x1="113.96" y1="32.73" x2="104.04" y2="32.73"/><path class="cls-4" d="M39.15,48.13c-.57,1.29-2,2.18-4.17,2.73-3.51.87-8.33-.68-9.56-4.11-1-2.74.1-3.93.33-4.14,1.75-1,6.68-3.27,9.88-2.36a3.92,3.92,0,0,1,2.5,2C39.38,44.77,39.72,46.73,39.15,48.13Z"/><path class="cls-4" d="M48.76,46.87A6.38,6.38,0,0,1,45,43a2.94,2.94,0,0,1,.33-2.65A9.25,9.25,0,0,1,51.51,39a9.49,9.49,0,0,1,6.05,4.3c1.22,1.71,1.68,3.08,1.26,3.65C57.7,48.43,51.64,47.77,48.76,46.87Z"/><path class="cls-4" d="M59.48,44.15a1.09,1.09,0,0,0,0-.18c-.48-1-1.52-3.9-.75-5.8A3.22,3.22,0,0,1,60.9,36.4a13.51,13.51,0,0,1,3-.62,4.18,4.18,0,0,1,2.9.63,3.45,3.45,0,0,1,1,3.11c-.25,4-1.62,6.38-2.83,6.72C64.46,46.35,60.44,47.19,59.48,44.15Z"/><path class="cls-4" d="M50.23,19.54a1.28,1.28,0,0,0,0-.19c-.48-1-1.53-3.9-.75-5.79a3.17,3.17,0,0,1,2.17-1.77,13.59,13.59,0,0,1,3-.62,4.18,4.18,0,0,1,2.9.63,3.44,3.44,0,0,1,1,3.1c-.25,4-1.62,6.39-2.83,6.73C55.21,21.74,51.19,22.58,50.23,19.54Z"/><path class="cls-4" d="M66.89,30.41h0c.73.08,1.41.13,2.06.15,1.39.09,2.71.17,3,.6.14.11.28.54.11,1.65s-.56,3.16-1.5,3.58-2.2,0-4.1-1.13c-1.72-1-2.77-2.07-3-3a1.62,1.62,0,0,1,.15-1.06A4.76,4.76,0,0,1,66.89,30.41Z"/><path class="cls-4" d="M59.39,33.49a4.3,4.3,0,0,1-.4,3.18c-.68.88-2.19,1-3.51,1.18l-.91.06c-2.49.29-4.13.36-5.3-2.15a7.85,7.85,0,0,1,.32-5.06A3.81,3.81,0,0,1,52.07,29c2.58-.65,4.27-.63,5.32.07s1.62,2.08,2,4.47Z"/><path class="cls-4" d="M56.8,23.36a3.92,3.92,0,0,1,1.94-2.18,4.89,4.89,0,0,1,2.1-.67,4.28,4.28,0,0,1,2.94.94,5.85,5.85,0,0,1,2.7,5.24,4.62,4.62,0,0,1-2.71,3.65,5.34,5.34,0,0,1-4,.44,3.5,3.5,0,0,1-1.89-1.91C56.65,26.36,56.34,24.71,56.8,23.36Z"/><path class="cls-4" d="M48.82,32.32c.12,1.82-1.67,4.28-5.1,6.91-.13.1-3.18,2.4-5.9,1.44-2-.73-3.57-3.11-4.52-7.09-.57-2.39-.35-4,.66-4.89a4.61,4.61,0,0,1,2.68-.87c3.25-.22,8,1.19,10.87,2.42A2.79,2.79,0,0,1,48.82,32.32Z"/><path class="cls-4" d="M39.26,18.3A4.39,4.39,0,0,1,40.72,18a15.88,15.88,0,0,1,7.79,2.27c1.18.61,1.16,1.17,1.14,1.3-.1,1.67-4,4.59-7,5.71a4.47,4.47,0,0,1-4.42-1.08,5,5,0,0,1-1.08-5.35,3.73,3.73,0,0,1,2.07-2.51Z"/><path class="cls-4" d="M62.32,63.06a2,2,0,0,1-1.38.85,5.68,5.68,0,0,1-3.11-.31,1.34,1.34,0,0,1-.94-1h0c-.09-.41-.16-.82-.21-1.24,0-.66-.07-1,.13-1.26s.32-.28.91-.32a5,5,0,0,1,.67,0,5.37,5.37,0,0,1,3.22,1,2,2,0,0,1,.69,2.26Z"/><path class="cls-4" d="M34.83,62.41a4.35,4.35,0,0,1-3,1.24c-2.15,0-4.65-1.48-7.23-4.34a4.44,4.44,0,0,1-.26-3.75c.84-1.81,3.44-3.11,7.5-3.74,1.82-.27,4.16-.28,5.08.91,1.3,2.08-.57,7-2.11,9.67Z"/><path class="cls-4" d="M48.58,53.59c-.77.87-2.46.68-4.31.47A18.36,18.36,0,0,0,41,53.9l-.27,0c-.35-.48,0-2.77.77-4.83.81-.8,4.47-4.16,7.26-2.26a3.49,3.49,0,0,1,1.72,2.4c.17,1.74-1.31,3.63-2,4.35Z"/><path class="cls-4" d="M61,58.44a8.75,8.75,0,0,1-8,1.05,4.77,4.77,0,0,1-3.18-3c-.43-1.8,1-6.16,3.44-7.93A3.93,3.93,0,0,1,58,48.7c3.55,2.27,5.47,4.38,5.51,6.1,0,1.18-.87,2.4-2.56,3.63Z"/><path class="cls-4" d="M79.15,43.83c-.35.79-1.37,1.94-4.36,2.89-1.54.51-3.61.88-4.73-.18s-1.27-3.34-.54-6.11A3.25,3.25,0,0,1,71,38.17a2.79,2.79,0,0,1,1-.26,4.8,4.8,0,0,1,1.84.29,20.52,20.52,0,0,1,5.33,4.44,1.91,1.91,0,0,1-.09,1.16Z"/><path class="cls-4" d="M71.76,52.36l.07-.41a4.46,4.46,0,0,1,1-2.57h0a1.47,1.47,0,0,1,.4-.24,3.2,3.2,0,0,1,1.13-.29,3.29,3.29,0,0,1,1.66.32,3.54,3.54,0,0,1,1.85,2.39,1.08,1.08,0,0,1-.21,1.1c-.78.9-3,1.36-5.38,1.11a.64.64,0,0,1-.44-.17,1.62,1.62,0,0,1-.1-1.26Z"/><path class="cls-4" d="M76.23,61.24l.08-.41a4.51,4.51,0,0,1,1-2.58h0a1.63,1.63,0,0,1,.4-.24,3.42,3.42,0,0,1,1.14-.29,3.24,3.24,0,0,1,1.65.33,3.51,3.51,0,0,1,1.86,2.38,1.12,1.12,0,0,1-.22,1.11c-.78.89-3,1.36-5.38,1.11a.66.66,0,0,1-.44-.17,1.69,1.69,0,0,1-.1-1.27Z"/><path class="cls-4" d="M79.37,54.61l.07-.41a4.59,4.59,0,0,1,1-2.58h0a2,2,0,0,1,.4-.24A3.42,3.42,0,0,1,82,51.09a3.24,3.24,0,0,1,1.65.33,3.51,3.51,0,0,1,1.86,2.38,1.12,1.12,0,0,1-.22,1.11c-.78.89-3,1.36-5.38,1.11a.66.66,0,0,1-.44-.17,1.67,1.67,0,0,1-.1-1.26Z"/><path class="cls-4" d="M70.68,50.56a3.76,3.76,0,0,1-3.07,2.31,5.41,5.41,0,0,1-5-1.57h0c-.34-.45-1.24-1.94-.85-2.94s1.72-1.28,2.81-1.44c1.89-.33,4.62.11,5.73,1.37a2.15,2.15,0,0,1,.39,2.25Z"/><path class="cls-4" d="M71.74,54.48a6.45,6.45,0,0,0-5.83.4,6.39,6.39,0,0,0-2.44,4.57,1.25,1.25,0,0,0,1.07,1.31l5.46.79.26,0a1.22,1.22,0,0,0,.33,0c1.37-.48,4.57-1.82,4.54-4C75.1,55.57,72.57,54.74,71.74,54.48Z"/><path class="cls-4" d="M48.9,26.17l.07-.41a4.46,4.46,0,0,1,1-2.57h0a1.47,1.47,0,0,1,.4-.24,3.15,3.15,0,0,1,2.78,0A3.53,3.53,0,0,1,55,25.36a1.12,1.12,0,0,1-.21,1.11c-.78.89-3.05,1.36-5.39,1.11a.61.61,0,0,1-.43-.17,1.63,1.63,0,0,1-.1-1.26Z"/><path class="cls-4" d="M47.75,62.91l.07-.41a4.52,4.52,0,0,1,1-2.58h0a1.58,1.58,0,0,1,.39-.24,3.48,3.48,0,0,1,1.14-.29,3.14,3.14,0,0,1,1.65.33,3.51,3.51,0,0,1,1.86,2.38,1.12,1.12,0,0,1-.21,1.11c-.78.89-3.05,1.36-5.39,1.11a.61.61,0,0,1-.43-.17,1.65,1.65,0,0,1-.1-1.27Z"/><path class="cls-4" d="M43.62,55a7.74,7.74,0,0,0-4.75,1.38,4.3,4.3,0,0,0-2.3,3.12,4.06,4.06,0,0,0,1.28,3A11.76,11.76,0,0,0,39,63.62h0a3.7,3.7,0,0,0,2.69.86,5.78,5.78,0,0,0,.71,0,8.05,8.05,0,0,0,3.93-2.19A4.12,4.12,0,0,0,43.62,55Z"/><path class="cls-4" d="M195.45,48.13c-.56,1.29-2,2.18-4.17,2.73-3.5.87-8.33-.68-9.55-4.11-1-2.74.09-3.93.33-4.14,1.75-1,6.68-3.27,9.88-2.36a3.92,3.92,0,0,1,2.5,2C195.69,44.77,196,46.73,195.45,48.13Z"/><path class="cls-4" d="M205.07,46.87A6.37,6.37,0,0,1,201.34,43a2.94,2.94,0,0,1,.34-2.65A9.24,9.24,0,0,1,207.82,39a9.49,9.49,0,0,1,6.05,4.3c1.21,1.71,1.67,3.08,1.25,3.65C214,48.43,208,47.77,205.07,46.87Z"/><path class="cls-4" d="M215.79,44.15a1.09,1.09,0,0,0,0-.18c-.48-1-1.53-3.9-.75-5.8a3.2,3.2,0,0,1,2.17-1.77,13.62,13.62,0,0,1,3-.62,4.2,4.2,0,0,1,2.91.63,3.45,3.45,0,0,1,1,3.11c-.25,4-1.62,6.38-2.83,6.72C220.77,46.35,216.75,47.19,215.79,44.15Z"/><path class="cls-4" d="M206.54,19.54a1.37,1.37,0,0,0,0-.19c-.48-1-1.52-3.9-.74-5.79A3.15,3.15,0,0,1,208,11.79a13.51,13.51,0,0,1,3-.62,4.21,4.21,0,0,1,2.91.63,3.44,3.44,0,0,1,1,3.1c-.25,4-1.62,6.39-2.83,6.73C211.52,21.74,207.5,22.58,206.54,19.54Z"/><path class="cls-4" d="M223.2,30.41h0c.73.08,1.41.13,2.06.15,1.39.09,2.7.17,3,.6.13.11.27.54.11,1.65s-.56,3.16-1.5,3.58-2.21,0-4.1-1.13c-1.72-1-2.77-2.07-3-3a1.56,1.56,0,0,1,.15-1.06A4.76,4.76,0,0,1,223.2,30.41Z"/><path class="cls-4" d="M215.69,33.49a4.25,4.25,0,0,1-.39,3.18c-.68.88-2.19,1-3.51,1.18l-.92.06c-2.49.29-4.13.36-5.29-2.15a7.78,7.78,0,0,1,.32-5.06A3.76,3.76,0,0,1,208.38,29c2.58-.65,4.26-.63,5.31.07s1.63,2.08,2,4.47Z"/><path class="cls-4" d="M213.1,23.36a4,4,0,0,1,2-2.18,4.89,4.89,0,0,1,2.1-.67,4.29,4.29,0,0,1,2.94.94,5.82,5.82,0,0,1,2.69,5.24,4.61,4.61,0,0,1-2.7,3.65,5.36,5.36,0,0,1-4,.44,3.52,3.52,0,0,1-1.88-1.91C213,26.36,212.64,24.71,213.1,23.36Z"/><path class="cls-4" d="M205.13,32.32c.12,1.82-1.67,4.28-5.1,6.91-.14.1-3.18,2.4-5.91,1.44-2-.73-3.56-3.11-4.51-7.09-.58-2.39-.35-4,.66-4.89a4.58,4.58,0,0,1,2.67-.87c3.25-.22,8,1.19,10.88,2.42A2.82,2.82,0,0,1,205.13,32.32Z"/><path class="cls-4" d="M195.57,18.3A4.34,4.34,0,0,1,197,18a15.84,15.84,0,0,1,7.78,2.27c1.19.61,1.16,1.17,1.15,1.3-.1,1.67-4,4.59-7,5.71a4.45,4.45,0,0,1-4.41-1.08,5,5,0,0,1-1.09-5.35,3.77,3.77,0,0,1,2.08-2.51Z"/><path class="cls-4" d="M218.63,63.06a2,2,0,0,1-1.39.85,5.7,5.7,0,0,1-3.11-.31,1.33,1.33,0,0,1-.93-1h0a8.68,8.68,0,0,1-.21-1.24c0-.66-.07-1,.13-1.26s.32-.28.9-.32a5.17,5.17,0,0,1,.68,0,5.37,5.37,0,0,1,3.22,1,2,2,0,0,1,.68,2.26Z"/><path class="cls-4" d="M191.13,62.41a4.32,4.32,0,0,1-3,1.24c-2.16,0-4.66-1.48-7.24-4.34a4.44,4.44,0,0,1-.25-3.75c.84-1.81,3.44-3.11,7.5-3.74,1.81-.27,4.16-.28,5.08.91,1.3,2.08-.58,7-2.11,9.67Z"/><path class="cls-4" d="M204.89,53.59c-.77.87-2.46.68-4.31.47a18.47,18.47,0,0,0-3.24-.16l-.26,0c-.36-.48,0-2.77.76-4.83.81-.8,4.48-4.16,7.27-2.26a3.49,3.49,0,0,1,1.72,2.4c.17,1.74-1.31,3.63-2,4.35Z"/><path class="cls-4" d="M217.32,58.44a8.75,8.75,0,0,1-8,1.05,4.77,4.77,0,0,1-3.18-3c-.44-1.8,1-6.16,3.44-7.93a3.92,3.92,0,0,1,4.77.11c3.56,2.27,5.47,4.38,5.52,6.1,0,1.18-.87,2.4-2.57,3.63Z"/><path class="cls-4" d="M235.46,43.83c-.35.79-1.38,1.94-4.36,2.89-1.55.51-3.62.88-4.73-.18s-1.27-3.34-.55-6.11a3.28,3.28,0,0,1,1.49-2.26,2.85,2.85,0,0,1,1-.26,4.8,4.8,0,0,1,1.84.29,20.47,20.47,0,0,1,5.32,4.44,1.84,1.84,0,0,1-.08,1.16Z"/><path class="cls-4" d="M228.07,52.36l.07-.41a4.46,4.46,0,0,1,1-2.57h0a1.58,1.58,0,0,1,.39-.24,3.27,3.27,0,0,1,2.79,0,3.52,3.52,0,0,1,1.86,2.39,1.12,1.12,0,0,1-.21,1.1c-.78.9-3,1.36-5.39,1.11a.66.66,0,0,1-.44-.17,1.67,1.67,0,0,1-.09-1.26Z"/><path class="cls-4" d="M232.54,61.24l.07-.41a4.52,4.52,0,0,1,1-2.58h0A1.47,1.47,0,0,1,234,58a3.43,3.43,0,0,1,1.13-.29,3.3,3.3,0,0,1,1.66.33,3.49,3.49,0,0,1,1.85,2.38,1.1,1.1,0,0,1-.21,1.11c-.78.89-3,1.36-5.38,1.11a.64.64,0,0,1-.44-.17,1.65,1.65,0,0,1-.1-1.27Z"/><path class="cls-4" d="M235.68,54.61l.07-.41a4.52,4.52,0,0,1,1-2.58h0a1.77,1.77,0,0,1,.4-.24,3.43,3.43,0,0,1,1.13-.29,3.3,3.3,0,0,1,1.66.33,3.52,3.52,0,0,1,1.85,2.38,1.1,1.1,0,0,1-.21,1.11c-.78.89-3,1.36-5.38,1.11a.64.64,0,0,1-.44-.17,1.63,1.63,0,0,1-.1-1.26Z"/><path class="cls-4" d="M227,50.56a3.76,3.76,0,0,1-3.07,2.31,5.41,5.41,0,0,1-5-1.57h0c-.35-.45-1.24-1.94-.86-2.94s1.72-1.28,2.82-1.44c1.88-.33,4.61.11,5.73,1.37a2.15,2.15,0,0,1,.39,2.25Z"/><path class="cls-4" d="M228.05,54.48a6.48,6.48,0,0,0-5.84.4,6.38,6.38,0,0,0-2.43,4.57,1.25,1.25,0,0,0,1.07,1.31l5.46.79.26,0a1.22,1.22,0,0,0,.33,0c1.37-.48,4.57-1.82,4.53-4C231.41,55.57,228.88,54.74,228.05,54.48Z"/><path class="cls-4" d="M205.2,26.17l.08-.41a4.45,4.45,0,0,1,1-2.57h0a1.63,1.63,0,0,1,.4-.24,3.43,3.43,0,0,1,1.14-.3,3.35,3.35,0,0,1,1.65.33,3.53,3.53,0,0,1,1.86,2.38,1.12,1.12,0,0,1-.22,1.11c-.78.89-3,1.36-5.38,1.11a.66.66,0,0,1-.44-.17,1.67,1.67,0,0,1-.1-1.26Z"/><path class="cls-4" d="M204.05,62.91l.07-.41a4.59,4.59,0,0,1,1-2.58h0a1.63,1.63,0,0,1,.4-.24,3.42,3.42,0,0,1,1.14-.29,3.14,3.14,0,0,1,1.65.33,3.51,3.51,0,0,1,1.86,2.38,1.13,1.13,0,0,1-.22,1.11c-.78.89-3,1.36-5.38,1.11a.66.66,0,0,1-.44-.17,1.7,1.7,0,0,1-.1-1.27Z"/><path class="cls-4" d="M199.93,55a7.72,7.72,0,0,0-4.75,1.38,4.3,4.3,0,0,0-2.3,3.12,4,4,0,0,0,1.28,3,10.77,10.77,0,0,0,1.16,1.18h0a3.69,3.69,0,0,0,2.68.86,5.52,5.52,0,0,0,.71,0,8,8,0,0,0,3.93-2.19A4.12,4.12,0,0,0,199.93,55Z"/><line class="cls-3" x1="264.17" y1="64.73" x2="1.25" y2="64.73"/></g></g></svg>