<svg xmlns="http://www.w3.org/2000/svg" viewBox="0 0 266.54 67.52"><defs><style>.cls-1,.cls-3,.cls-5{fill:none;}.cls-1,.cls-2,.cls-3,.cls-4,.cls-5{stroke:#21362c;stroke-linecap:round;stroke-linejoin:round;}.cls-1,.cls-3,.cls-4{stroke-width:4.1px;}.cls-1,.cls-2{fill-rule:evenodd;}.cls-2,.cls-4{fill:#bfbfbf;}.cls-2{stroke-width:3.61px;}.cls-5{stroke-width:3.61px;}</style></defs><title>Asset 2</title><g id="Layer_2" data-name="Layer 2"><g id="Layer_1-2" data-name="Layer 1"><path class="cls-1" d="M161.94,30.72A28.67,28.67,0,0,0,133.27,2.05h0A28.67,28.67,0,0,0,104.6,30.72V65.47h57.34Z"/><path class="cls-2" d="M152,33.7C152,22.24,143.62,13,133.27,13h0c-10.36,0-18.75,9.29-18.75,20.75V65.47H152Z"/><line class="cls-3" x1="159.18" y1="54.39" x2="153.58" y2="54.39"/><line class="cls-3" x1="159.02" y1="43.96" x2="153.42" y2="43.96"/><line class="cls-3" x1="159.36" y1="33.53" x2="153.76" y2="33.53"/><line class="cls-3" x1="112.23" y1="54.39" x2="106.63" y2="54.39"/><line class="cls-3" x1="112.07" y1="43.96" x2="106.47" y2="43.96"/><line class="cls-3" x1="112.41" y1="33.53" x2="106.81" y2="33.53"/><path class="cls-4" d="M39.7,48.93c-.56,1.29-2,2.18-4.17,2.73C32,52.53,27.2,51,26,47.55c-1-2.74.09-3.93.33-4.14,1.75-1,6.68-3.27,9.88-2.36a3.92,3.92,0,0,1,2.5,2.05C39.94,45.57,40.27,47.53,39.7,48.93Z"/><path class="cls-4" d="M49.32,47.67a6.37,6.37,0,0,1-3.73-3.85,2.94,2.94,0,0,1,.34-2.65,9.24,9.24,0,0,1,6.14-1.42,9.52,9.52,0,0,1,6,4.3c1.21,1.71,1.67,3.08,1.25,3.65C58.26,49.23,52.2,48.57,49.32,47.67Z"/><path class="cls-4" d="M60,45c0-.06,0-.12,0-.18-.48-1-1.53-3.9-.75-5.8a3.2,3.2,0,0,1,2.17-1.77,13.62,13.62,0,0,1,3-.62,4.2,4.2,0,0,1,2.91.63,3.45,3.45,0,0,1,1,3.11c-.25,4-1.62,6.38-2.83,6.72C65,47.15,61,48,60,45Z"/><path class="cls-4" d="M50.79,20.34a1.37,1.37,0,0,0,0-.19c-.48-1-1.52-3.9-.75-5.79a3.19,3.19,0,0,1,2.18-1.77,13.51,13.51,0,0,1,3-.62,4.21,4.21,0,0,1,2.91.63,3.47,3.47,0,0,1,1,3.1c-.25,4.05-1.63,6.39-2.83,6.73C55.77,22.54,51.75,23.38,50.79,20.34Z"/><path class="cls-4" d="M67.45,31.21h0c.73.08,1.41.13,2.06.15,1.39.09,2.7.17,3,.6.13.11.27.54.11,1.65s-.56,3.16-1.5,3.58-2.21,0-4.1-1.13c-1.72-1-2.77-2.07-3-3A1.56,1.56,0,0,1,64.23,32,4.76,4.76,0,0,1,67.45,31.21Z"/><path class="cls-4" d="M59.94,34.29a4.21,4.21,0,0,1-.4,3.18c-.68.88-2.18,1-3.5,1.18l-.92.06c-2.49.29-4.13.36-5.29-2.15a7.78,7.78,0,0,1,.32-5.06,3.76,3.76,0,0,1,2.48-1.75c2.58-.65,4.26-.63,5.31.07s1.63,2.08,2,4.47Z"/><path class="cls-4" d="M57.35,24.16A4,4,0,0,1,59.3,22a4.89,4.89,0,0,1,2.1-.67,4.29,4.29,0,0,1,2.94.94A5.82,5.82,0,0,1,67,27.49a4.61,4.61,0,0,1-2.7,3.65,5.36,5.36,0,0,1-4,.44,3.52,3.52,0,0,1-1.88-1.91C57.21,27.16,56.89,25.51,57.35,24.16Z"/><path class="cls-4" d="M49.38,33.12c.12,1.82-1.67,4.28-5.11,6.91-.13.1-3.17,2.4-5.9,1.44-2-.73-3.56-3.11-4.51-7.09-.58-2.39-.35-4,.66-4.89a4.58,4.58,0,0,1,2.67-.87c3.25-.22,8,1.19,10.88,2.42A2.82,2.82,0,0,1,49.38,33.12Z"/><path class="cls-4" d="M39.82,19.1a4.28,4.28,0,0,1,1.46-.35A15.84,15.84,0,0,1,49.06,21c1.19.61,1.16,1.17,1.15,1.3-.1,1.67-4,4.59-7,5.71A4.48,4.48,0,0,1,38.82,27a5,5,0,0,1-1.08-5.35,3.77,3.77,0,0,1,2.08-2.51Z"/><path class="cls-4" d="M62.88,63.86a2,2,0,0,1-1.39.85,5.7,5.7,0,0,1-3.11-.31,1.33,1.33,0,0,1-.93-1h0a8.68,8.68,0,0,1-.21-1.24c-.05-.66-.07-1,.13-1.26s.32-.28.9-.32a5.17,5.17,0,0,1,.68,0,5.4,5.4,0,0,1,3.22,1,2,2,0,0,1,.68,2.26Z"/><path class="cls-4" d="M35.38,63.21a4.32,4.32,0,0,1-3,1.24c-2.16,0-4.66-1.48-7.24-4.34a4.44,4.44,0,0,1-.25-3.75c.84-1.81,3.44-3.11,7.5-3.74,1.81-.27,4.16-.28,5.08.91,1.3,2.08-.58,7-2.11,9.67Z"/><path class="cls-4" d="M49.14,54.39c-.77.87-2.46.68-4.31.47a18.47,18.47,0,0,0-3.24-.16l-.26,0c-.36-.48,0-2.77.76-4.83.81-.8,4.47-4.16,7.27-2.26A3.49,3.49,0,0,1,51.08,50c.17,1.74-1.31,3.63-2,4.35Z"/><path class="cls-4" d="M61.57,59.24a8.75,8.75,0,0,1-8,1,4.77,4.77,0,0,1-3.18-3c-.44-1.8,1-6.16,3.44-7.93a3.92,3.92,0,0,1,4.77.11c3.56,2.27,5.47,4.38,5.52,6.1,0,1.18-.87,2.4-2.57,3.63Z"/><path class="cls-4" d="M79.71,44.63c-.35.79-1.38,1.94-4.36,2.89-1.55.51-3.62.88-4.73-.18s-1.27-3.34-.55-6.11A3.28,3.28,0,0,1,71.56,39a2.85,2.85,0,0,1,1-.26,4.83,4.83,0,0,1,1.84.29,20.64,20.64,0,0,1,5.32,4.44,1.84,1.84,0,0,1-.08,1.16Z"/><path class="cls-4" d="M72.31,53.16l.08-.41a4.46,4.46,0,0,1,1-2.57h0a1.58,1.58,0,0,1,.39-.24,3.27,3.27,0,0,1,2.79,0,3.52,3.52,0,0,1,1.86,2.39,1.12,1.12,0,0,1-.21,1.1c-.78.9-3,1.36-5.39,1.11a.66.66,0,0,1-.44-.17,1.67,1.67,0,0,1-.09-1.26Z"/><path class="cls-4" d="M76.79,62l.07-.41a4.52,4.52,0,0,1,1-2.58h0a1.47,1.47,0,0,1,.4-.24,3.43,3.43,0,0,1,1.13-.29,3.3,3.3,0,0,1,1.66.33,3.52,3.52,0,0,1,1.85,2.38,1.1,1.1,0,0,1-.21,1.11c-.78.89-3,1.36-5.38,1.11a.64.64,0,0,1-.44-.17,1.65,1.65,0,0,1-.1-1.27Z"/><path class="cls-4" d="M79.93,55.41,80,55a4.52,4.52,0,0,1,1-2.58h0a1.77,1.77,0,0,1,.4-.24,3.43,3.43,0,0,1,1.13-.29,3.3,3.3,0,0,1,1.66.33A3.52,3.52,0,0,1,86,54.6a1.1,1.1,0,0,1-.21,1.11c-.78.89-3,1.36-5.38,1.11a.64.64,0,0,1-.44-.17,1.63,1.63,0,0,1-.1-1.26Z"/><path class="cls-4" d="M71.24,51.36a3.78,3.78,0,0,1-3.07,2.31,5.41,5.41,0,0,1-5.05-1.57h0c-.35-.45-1.24-1.94-.86-2.94s1.72-1.28,2.82-1.44c1.88-.33,4.61.11,5.73,1.37a2.15,2.15,0,0,1,.39,2.25Z"/><path class="cls-4" d="M72.3,55.28a6.48,6.48,0,0,0-5.84.4A6.38,6.38,0,0,0,64,60.25a1.25,1.25,0,0,0,1.06,1.31l5.47.79.26,0a1.22,1.22,0,0,0,.33,0c1.37-.48,4.57-1.82,4.53-4C75.66,56.37,73.13,55.54,72.3,55.28Z"/><path class="cls-4" d="M49.45,27l.07-.41a4.53,4.53,0,0,1,1-2.57h0a1.63,1.63,0,0,1,.4-.24,3.43,3.43,0,0,1,1.14-.3,3.35,3.35,0,0,1,1.65.33,3.53,3.53,0,0,1,1.86,2.38,1.12,1.12,0,0,1-.22,1.11c-.78.89-3,1.36-5.38,1.11a.66.66,0,0,1-.44-.17,1.67,1.67,0,0,1-.1-1.26Z"/><path class="cls-4" d="M48.3,63.71l.07-.41a4.52,4.52,0,0,1,1-2.58h0a1.63,1.63,0,0,1,.4-.24,3.42,3.42,0,0,1,1.14-.29,3.14,3.14,0,0,1,1.65.33A3.51,3.51,0,0,1,54.4,62.9,1.13,1.13,0,0,1,54.18,64c-.78.89-3,1.36-5.38,1.11a.66.66,0,0,1-.44-.17,1.7,1.7,0,0,1-.1-1.27Z"/><path class="cls-4" d="M44.18,55.77a7.77,7.77,0,0,0-4.76,1.38,4.31,4.31,0,0,0-2.29,3.12,4,4,0,0,0,1.28,3,10.77,10.77,0,0,0,1.16,1.18h0a3.69,3.69,0,0,0,2.68.86,5.52,5.52,0,0,0,.71,0A8,8,0,0,0,46.89,63a4.12,4.12,0,0,0-2.71-7.21Z"/><path class="cls-4" d="M196,48.93c-.57,1.29-2,2.18-4.17,2.73-3.51.87-8.33-.68-9.56-4.11-1-2.74.1-3.93.33-4.14,1.76-1,6.68-3.27,9.88-2.36A3.87,3.87,0,0,1,195,43.1C196.24,45.57,196.58,47.53,196,48.93Z"/><path class="cls-4" d="M205.62,47.67a6.38,6.38,0,0,1-3.72-3.85,2.91,2.91,0,0,1,.34-2.65,9.23,9.23,0,0,1,6.14-1.42,9.54,9.54,0,0,1,6.05,4.3c1.21,1.71,1.67,3.08,1.25,3.65C214.56,49.23,208.5,48.57,205.62,47.67Z"/><path class="cls-4" d="M216.35,45a1.1,1.1,0,0,0,0-.18c-.48-1-1.52-3.9-.75-5.8a3.22,3.22,0,0,1,2.18-1.77,13.51,13.51,0,0,1,3-.62,4.21,4.21,0,0,1,2.91.63,3.48,3.48,0,0,1,1,3.11c-.25,4-1.63,6.38-2.83,6.72C221.33,47.15,217.31,48,216.35,45Z"/><path class="cls-4" d="M207.09,20.34a1.28,1.28,0,0,0,0-.19c-.48-1-1.52-3.9-.75-5.79a3.19,3.19,0,0,1,2.18-1.77,13.51,13.51,0,0,1,3-.62,4.18,4.18,0,0,1,2.9.63,3.44,3.44,0,0,1,1,3.1c-.25,4.05-1.62,6.39-2.83,6.73C212.07,22.54,208.05,23.38,207.09,20.34Z"/><path class="cls-4" d="M223.75,31.21h0c.74.08,1.41.13,2.06.15,1.39.09,2.71.17,3,.6.13.11.27.54.11,1.65s-.57,3.16-1.51,3.58-2.2,0-4.09-1.13c-1.72-1-2.77-2.07-3-3a1.5,1.5,0,0,1,.15-1.06A4.72,4.72,0,0,1,223.75,31.21Z"/><path class="cls-4" d="M216.25,34.29a4.25,4.25,0,0,1-.4,3.18c-.68.88-2.19,1-3.51,1.18l-.91.06c-2.49.29-4.13.36-5.29-2.15a7.78,7.78,0,0,1,.32-5.06,3.76,3.76,0,0,1,2.48-1.75c2.57-.65,4.26-.63,5.31.07s1.62,2.08,2,4.47Z"/><path class="cls-4" d="M213.66,24.16a3.9,3.9,0,0,1,2-2.18,4.81,4.81,0,0,1,2.1-.67,4.29,4.29,0,0,1,2.94.94,5.86,5.86,0,0,1,2.69,5.24,4.63,4.63,0,0,1-2.7,3.65,5.37,5.37,0,0,1-4,.44,3.5,3.5,0,0,1-1.89-1.91C213.51,27.16,213.2,25.51,213.66,24.16Z"/><path class="cls-4" d="M205.68,33.12c.13,1.82-1.66,4.28-5.1,6.91-.13.1-3.17,2.4-5.9,1.44-2.05-.73-3.56-3.11-4.51-7.09-.58-2.39-.36-4,.65-4.89a4.61,4.61,0,0,1,2.68-.87c3.25-.22,8,1.19,10.87,2.42A2.76,2.76,0,0,1,205.68,33.12Z"/><path class="cls-4" d="M196.13,19.1a4.28,4.28,0,0,1,1.45-.35A15.88,15.88,0,0,1,205.37,21c1.18.61,1.16,1.17,1.14,1.3-.1,1.67-4,4.59-7,5.71A4.48,4.48,0,0,1,195.13,27a5,5,0,0,1-1.08-5.35,3.75,3.75,0,0,1,2.08-2.51Z"/><path class="cls-4" d="M219.18,63.86a1.94,1.94,0,0,1-1.38.85,5.68,5.68,0,0,1-3.11-.31,1.33,1.33,0,0,1-.93-1h0a8.68,8.68,0,0,1-.21-1.24c-.05-.66-.07-1,.12-1.26s.32-.28.91-.32a5.07,5.07,0,0,1,.68,0,5.42,5.42,0,0,1,3.22,1,2,2,0,0,1,.68,2.26Z"/><path class="cls-4" d="M191.69,63.21a4.32,4.32,0,0,1-3,1.24c-2.16,0-4.66-1.48-7.24-4.34a4.44,4.44,0,0,1-.26-3.75c.85-1.81,3.44-3.11,7.5-3.74,1.82-.27,4.16-.28,5.09.91,1.29,2.08-.58,7-2.12,9.67Z"/><path class="cls-4" d="M205.45,54.39c-.77.87-2.47.68-4.31.47a18.52,18.52,0,0,0-3.24-.16l-.26,0c-.36-.48,0-2.77.76-4.83.81-.8,4.47-4.16,7.26-2.26a3.49,3.49,0,0,1,1.72,2.4c.17,1.74-1.31,3.63-2,4.35Z"/><path class="cls-4" d="M217.88,59.24a8.77,8.77,0,0,1-8,1,4.75,4.75,0,0,1-3.17-3c-.44-1.8,1-6.16,3.43-7.93a3.93,3.93,0,0,1,4.78.11c3.56,2.27,5.47,4.38,5.51,6.1,0,1.18-.86,2.4-2.56,3.63Z"/><path class="cls-4" d="M236,44.63c-.34.79-1.37,1.94-4.35,2.89-1.55.51-3.62.88-4.74-.18s-1.27-3.34-.54-6.11A3.28,3.28,0,0,1,227.87,39a2.79,2.79,0,0,1,1-.26,4.77,4.77,0,0,1,1.84.29,20.52,20.52,0,0,1,5.33,4.44A1.77,1.77,0,0,1,236,44.6Z"/><path class="cls-4" d="M228.62,53.16l.07-.41a4.46,4.46,0,0,1,1-2.57h0a1.63,1.63,0,0,1,.4-.24,3.2,3.2,0,0,1,1.14-.29,3.24,3.24,0,0,1,1.65.32,3.52,3.52,0,0,1,1.86,2.39,1.1,1.1,0,0,1-.22,1.1c-.78.9-3,1.36-5.38,1.11a.66.66,0,0,1-.44-.17,1.67,1.67,0,0,1-.1-1.26Z"/><path class="cls-4" d="M233.1,62l.07-.41a4.52,4.52,0,0,1,1-2.58h0a1.58,1.58,0,0,1,.39-.24,3.48,3.48,0,0,1,1.14-.29,3.24,3.24,0,0,1,1.65.33,3.51,3.51,0,0,1,1.86,2.38,1.14,1.14,0,0,1-.21,1.11c-.78.89-3,1.36-5.39,1.11a.66.66,0,0,1-.44-.17,1.69,1.69,0,0,1-.09-1.27Z"/><path class="cls-4" d="M236.23,55.41l.08-.41a4.52,4.52,0,0,1,1-2.58h0a2,2,0,0,1,.39-.24,3.48,3.48,0,0,1,1.14-.29,3.24,3.24,0,0,1,1.65.33,3.51,3.51,0,0,1,1.86,2.38,1.14,1.14,0,0,1-.21,1.11c-.78.89-3.05,1.36-5.39,1.11a.66.66,0,0,1-.44-.17,1.67,1.67,0,0,1-.09-1.26Z"/><path class="cls-4" d="M227.54,51.36a3.76,3.76,0,0,1-3.06,2.31,5.43,5.43,0,0,1-5.06-1.57h0c-.34-.45-1.23-1.94-.85-2.94s1.72-1.28,2.81-1.44c1.89-.33,4.62.11,5.73,1.37a2.16,2.16,0,0,1,.4,2.25Z"/><path class="cls-4" d="M228.6,55.28a5.69,5.69,0,0,0-8.27,5,1.26,1.26,0,0,0,1.07,1.31l5.47.79.26,0a1.13,1.13,0,0,0,.32,0c1.38-.48,4.57-1.82,4.54-4C232,56.37,229.44,55.54,228.6,55.28Z"/><path class="cls-4" d="M205.76,27l.07-.41a4.46,4.46,0,0,1,1-2.57h0a1.47,1.47,0,0,1,.4-.24,3.17,3.17,0,0,1,2.79,0,3.54,3.54,0,0,1,1.85,2.38,1.1,1.1,0,0,1-.21,1.11c-.78.89-3,1.36-5.38,1.11a.64.64,0,0,1-.44-.17,1.63,1.63,0,0,1-.1-1.26Z"/><path class="cls-4" d="M204.61,63.71l.07-.41a4.52,4.52,0,0,1,1-2.58h0a1.47,1.47,0,0,1,.4-.24,3.43,3.43,0,0,1,1.13-.29,3.2,3.2,0,0,1,1.66.33,3.52,3.52,0,0,1,1.85,2.38,1.1,1.1,0,0,1-.21,1.11c-.78.89-3,1.36-5.38,1.11a.64.64,0,0,1-.44-.17,1.65,1.65,0,0,1-.1-1.27Z"/><path class="cls-4" d="M200.48,55.77a7.74,7.74,0,0,0-4.75,1.38,4.33,4.33,0,0,0-2.3,3.12,4,4,0,0,0,1.29,3,9.94,9.94,0,0,0,1.16,1.18h0a3.68,3.68,0,0,0,2.68.86,5.65,5.65,0,0,0,.71,0A8.05,8.05,0,0,0,203.2,63a4.12,4.12,0,0,0-2.71-7.21Z"/><line class="cls-5" x1="264.73" y1="65.53" x2="1.81" y2="65.53"/></g></g></svg>